<?xml version="1.0" encoding="UTF-8"?>
<svg xmlns="http://www.w3.org/2000/svg" xmlns:xlink="http://www.w3.org/1999/xlink" viewBox="0 0 26 26" width="26px" height="26px">
<g id="surface163973889">
<path style=" stroke:none;fill-rule:nonzero;fill:rgb(65.882355%,85.882354%,31.764707%);fill-opacity:1;" d="M 13 25.871094 C 5.890625 25.871094 0.128906 20.109375 0.128906 13 C 0.128906 5.890625 5.890625 0.128906 13 0.128906 C 20.109375 0.128906 25.871094 5.890625 25.871094 13 C 25.871094 20.109375 20.109375 25.871094 13 25.871094 Z M 13 25.871094 "/>
<path style=" stroke:none;fill-rule:nonzero;fill:rgb(15.686275%,25.098041%,42.745098%);fill-opacity:1;" d="M 19.714844 9.382812 C 19.226562 9.601562 18.699219 9.746094 18.144531 9.8125 C 18.707031 9.472656 19.144531 8.941406 19.347656 8.300781 C 18.820312 8.613281 18.234375 8.84375 17.613281 8.964844 C 17.113281 8.433594 16.40625 8.101562 15.617188 8.101562 C 14.113281 8.101562 12.890625 9.328125 12.890625 10.832031 C 12.890625 11.046875 12.914062 11.257812 12.960938 11.453125 C 10.691406 11.339844 8.679688 10.253906 7.332031 8.601562 C 7.097656 9.003906 6.964844 9.472656 6.964844 9.976562 C 6.964844 10.921875 7.445312 11.757812 8.179688 12.246094 C 7.730469 12.234375 7.308594 12.109375 6.941406 11.90625 C 6.941406 11.917969 6.941406 11.929688 6.941406 11.941406 C 6.941406 13.261719 7.882812 14.367188 9.132812 14.617188 C 8.902344 14.679688 8.660156 14.714844 8.410156 14.714844 C 8.234375 14.714844 8.0625 14.695312 7.898438 14.664062 C 8.246094 15.746094 9.253906 16.539062 10.445312 16.558594 C 9.515625 17.292969 8.335938 17.726562 7.058594 17.726562 C 6.835938 17.726562 6.621094 17.714844 6.40625 17.691406 C 7.613281 18.464844 9.050781 18.917969 10.589844 18.917969 C 15.613281 18.917969 18.359375 14.757812 18.359375 11.148438 C 18.359375 11.03125 18.355469 10.914062 18.351562 10.792969 C 18.886719 10.414062 19.347656 9.929688 19.714844 9.382812 "/>
</g>
</svg>
